# xmcd
#
# Track frame offsets: 
#        150
#        16180
#        32638
#        45529
#        60637
#        75321
#        92654
#        117453
#        133008
#        155286
#        173045
#        187061
#        208576
#        225175
#        241810
#
# Disc length: 3445 seconds
#
# Revision: 1
# Processed by: cddbd v1.5.2PL0 Copyright (c) Steve Scherf et al.
# Submitted via: ExactAudioCopyFreeDBPlugin 1.0
#
DISCID=b10d730f
DTITLE=Liam Bailey - Definitely Now
DYEAR=2014
DGENRE=Pop
TTITLE0=On My Mind
TTITLE1=Breaking
TTITLE2=Fool Boy
TTITLE3=Black Moon
TTITLE4=Villain
TTITLE5=Autumn Leave
TTITLE6=So...? Maybe Love
TTITLE7=Battle Hymn Of Central London
TTITLE8=So, Down Cold
TTITLE9=Crazy Situation
TTITLE10=Summer Rain
TTITLE11=Sail With Ease
TTITLE12=Stun Me
TTITLE13=Walking Out
TTITLE14=Villain (Remix feat. A$AP Ferg)
EXTD=
EXTT0=
EXTT1=
EXTT2=
EXTT3=
EXTT4=
EXTT5=
EXTT6=
EXTT7=
EXTT8=
EXTT9=
EXTT10=
EXTT11=
EXTT12=
EXTT13=
EXTT14=
PLAYORDER=
